<svg width="48" height="48" viewBox="0 0 56 56" fill="none" xmlns="http://www.w3.org/2000/svg">
<g filter="url(#filter0_dd_1219_92883)">
<circle cx="28" cy="27" r="24" fill="#7638FA"/>
</g>
<path d="M16 26.3334C15.9954 28.0932 16.4066 29.8292 17.2 31.4C18.1408 33.2824 19.587 34.8656 21.3767 35.9724C23.1665 37.0792 25.229 37.6659 27.3333 37.6667C29.0932 37.6713 30.8292 37.2601 32.4 36.4667L40 39L37.4667 31.4C38.2601 29.8292 38.6713 28.0932 38.6667 26.3334C38.6659 24.229 38.0792 22.1665 36.9724 20.3768C35.8656 18.587 34.2823 17.1408 32.4 16.2C30.8292 15.4066 29.0932 14.9954 27.3333 15H26.6667C23.8875 15.1534 21.2626 16.3264 19.2945 18.2945C17.3263 20.2626 16.1533 22.8876 16 25.6667V26.3334Z" stroke="#FCFCFD" stroke-width="2.18182" stroke-linecap="round" stroke-linejoin="round"/>
<defs>
<filter id="filter0_dd_1219_92883" x="0.727273" y="0.818182" width="54.5455" height="54.5455" filterUnits="userSpaceOnUse" color-interpolation-filters="sRGB">
<feFlood flood-opacity="0" result="BackgroundImageFix"/>
<feColorMatrix in="SourceAlpha" type="matrix" values="0 0 0 0 0 0 0 0 0 0 0 0 0 0 0 0 0 0 127 0" result="hardAlpha"/>
<feOffset dy="1.09091"/>
<feGaussianBlur stdDeviation="1.09091"/>
<feColorMatrix type="matrix" values="0 0 0 0 0.0627451 0 0 0 0 0.0941176 0 0 0 0 0.156863 0 0 0 0.06 0"/>
<feBlend mode="normal" in2="BackgroundImageFix" result="effect1_dropShadow_1219_92883"/>
<feColorMatrix in="SourceAlpha" type="matrix" values="0 0 0 0 0 0 0 0 0 0 0 0 0 0 0 0 0 0 127 0" result="hardAlpha"/>
<feOffset dy="1.09091"/>
<feGaussianBlur stdDeviation="1.63636"/>
<feColorMatrix type="matrix" values="0 0 0 0 0.0627451 0 0 0 0 0.0941176 0 0 0 0 0.156863 0 0 0 0.1 0"/>
<feBlend mode="normal" in2="effect1_dropShadow_1219_92883" result="effect2_dropShadow_1219_92883"/>
<feBlend mode="normal" in="SourceGraphic" in2="effect2_dropShadow_1219_92883" result="shape"/>
</filter>
</defs>
</svg>