<svg width="48" height="48" viewBox="0 0 56 56" fill="none" xmlns="http://www.w3.org/2000/svg">
<g filter="url(#filter0_dd_538_77016)">
<circle cx="28" cy="27" r="24" fill="#C11574"/>
</g>
<path d="M36 36V34C36 32.9391 35.5786 31.9217 34.8284 31.1716C34.0783 30.4214 33.0609 30 32 30H24C22.9391 30 21.9217 30.4214 21.1716 31.1716C20.4214 31.9217 20 32.9391 20 34V36" stroke="#FCFCFD" stroke-width="2.18182" stroke-linecap="round" stroke-linejoin="round"/>
<path d="M28 26C30.2091 26 32 24.2091 32 22C32 19.7909 30.2091 18 28 18C25.7909 18 24 19.7909 24 22C24 24.2091 25.7909 26 28 26Z" stroke="#FCFCFD" stroke-width="2.18182" stroke-linecap="round" stroke-linejoin="round"/>
<defs>
<filter id="filter0_dd_538_77016" x="0.727273" y="0.818182" width="54.5455" height="54.5455" filterUnits="userSpaceOnUse" color-interpolation-filters="sRGB">
<feFlood flood-opacity="0" result="BackgroundImageFix"/>
<feColorMatrix in="SourceAlpha" type="matrix" values="0 0 0 0 0 0 0 0 0 0 0 0 0 0 0 0 0 0 127 0" result="hardAlpha"/>
<feOffset dy="1.09091"/>
<feGaussianBlur stdDeviation="1.09091"/>
<feColorMatrix type="matrix" values="0 0 0 0 0.0627451 0 0 0 0 0.0941176 0 0 0 0 0.156863 0 0 0 0.06 0"/>
<feBlend mode="normal" in2="BackgroundImageFix" result="effect1_dropShadow_538_77016"/>
<feColorMatrix in="SourceAlpha" type="matrix" values="0 0 0 0 0 0 0 0 0 0 0 0 0 0 0 0 0 0 127 0" result="hardAlpha"/>
<feOffset dy="1.09091"/>
<feGaussianBlur stdDeviation="1.63636"/>
<feColorMatrix type="matrix" values="0 0 0 0 0.0627451 0 0 0 0 0.0941176 0 0 0 0 0.156863 0 0 0 0.1 0"/>
<feBlend mode="normal" in2="effect1_dropShadow_538_77016" result="effect2_dropShadow_538_77016"/>
<feBlend mode="normal" in="SourceGraphic" in2="effect2_dropShadow_538_77016" result="shape"/>
</filter>
</defs>
</svg>
